{"glyphs":{":":{"x_min":0,"x_max":332,"ha":332,"o":"m 83 397 q 83 436 107 463 q 131 490 166 490 q 200 490 225 463 q 249 435 249 397 q 249 359 225 332 q 200 305 166 305 q 131 305 107 332 q 83 359 83 397 z m 83 79 q 83 117 107 145 q 131 172 166 172 q 200 172 225 145 q 249 117 249 79 q 249 41 225 13 q 200 -14 166 -14 q 131 -14 107 13 q 83 41 83 79 z"},"$":{"x_min":0,"x_max":626,"ha":626,"o":"m 86 29 l 86 171 l 139 171 q 146 105 180 73 q 215 41 278 41 l 284 41 l 284 239 q 175 266 127 312 q 80 358 80 438 q 80 526 134 576 q 188 627 284 630 l 284 761 l 337 761 l 337 630 q 387 627 432 616 q 477 606 520 587 l 520 454 l 466 454 q 459 511 426 542 q 392 574 337 575 l 337 393 q 456 364 504 316 q 552 267 552 179 q 552 89 496 39 q 440 -11 337 -14 l 337 -146 l 284 -146 l 284 -14 q 236 -13 186 -2 q 137 8 86 29 z m 284 575 q 247 570 225 549 q 204 529 204 499 q 204 465 222 444 q 241 423 284 409 z m 337 41 q 382 46 405 68 q 428 89 428 125 q 428 161 406 185 q 385 208 337 223 z"},"?":{"x_min":0,"x_max":527,"ha":527,"o":"m 150 79 q 150 117 175 145 q 200 172 234 172 q 269 172 293 145 q 318 117 318 79 q 318 41 293 13 q 269 -14 234 -14 q 200 -14 175 13 q 150 41 150 79 z m 59 709 q 113 726 162 734 q 211 742 257 742 q 368 742 427 688 q 487 634 487 534 q 487 436 429 379 q 372 322 265 313 l 265 213 l 204 213 l 204 359 q 265 380 294 425 q 322 470 322 545 q 322 615 295 651 q 269 687 216 687 q 168 687 142 655 q 116 623 112 559 l 59 559 z"},"<":{"x_min":0,"x_max":754,"ha":754,"o":"m 659 478 l 229 313 l 659 149 l 659 32 l 95 259 l 95 369 l 659 595 z"},"'":{"x_min":0,"x_max":275,"ha":275,"o":"m 190 729 l 190 458 l 86 458 l 86 729 z"},"=":{"x_min":0,"x_max":754,"ha":754,"o":"m 95 258 l 659 258 l 659 147 l 95 147 z m 95 480 l 659 480 l 659 369 l 95 369 z"},"a":{"x_min":0,"x_max":583,"ha":583,"o":"m 496 319 l 496 59 l 562 59 l 562 0 l 340 0 l 340 66 q 310 25 272 5 q 234 -14 186 -14 q 114 -14 75 29 q 37 71 37 151 q 37 238 92 282 q 147 325 258 325 l 340 325 l 340 356 q 340 419 313 449 q 287 479 230 479 q 184 479 158 458 q 133 437 123 388 l 73 388 l 73 500 q 115 517 159 525 q 204 533 254 533 q 379 533 438 481 q 496 430 496 319 z m 340 163 l 340 267 l 282 267 q 238 267 215 241 q 191 214 191 165 q 191 116 208 91 q 226 67 260 67 q 296 67 318 93 q 340 120 340 163 z"},"L":{"x_min":0,"x_max":633,"ha":633,"o":"m 42 0 l 42 59 l 126 59 l 126 670 l 42 670 l 42 729 l 380 729 l 380 670 l 295 670 l 295 67 l 554 67 l 554 182 l 613 182 l 613 0 z"},"3":{"x_min":0,"x_max":626,"ha":626,"o":"m 77 708 q 135 725 190 734 q 244 742 296 742 q 415 742 479 695 q 542 648 542 560 q 542 494 505 453 q 469 412 398 398 q 484 383 527 333 q 569 283 569 197 q 569 95 496 40 q 423 -14 285 -14 q 233 -14 178 -4 q 123 5 63 25 l 63 185 l 116 185 q 121 116 155 79 q 189 43 250 43 q 317 43 353 84 q 390 125 390 201 q 390 280 352 323 q 314 366 244 366 l 215 366 l 215 425 l 238 425 q 302 425 335 458 q 367 491 367 557 q 367 619 337 652 q 306 685 249 685 q 197 685 167 654 q 137 622 130 562 l 77 562 z"},";":{"x_min":0,"x_max":332,"ha":332,"o":"m 83 397 q 83 436 107 463 q 131 490 166 490 q 200 490 225 463 q 249 435 249 397 q 249 359 225 332 q 200 305 166 305 q 131 305 107 332 q 83 359 83 397 z m 23 -92 q 69 -51 91 -1 q 112 50 112 117 l 112 160 l 238 160 q 238 50 197 -29 q 156 -108 72 -161 z"},"J":{"x_min":0,"x_max":426,"ha":426,"o":"m -66 -175 l -66 -60 l -9 -60 q -6 -106 11 -127 q 28 -149 61 -149 q 104 -149 121 -113 q 138 -76 138 24 l 138 670 l 42 670 l 42 729 l 392 729 l 392 670 l 308 670 l 308 20 q 308 -99 254 -153 q 200 -208 83 -208 q 46 -208 9 -200 q -28 -191 -66 -175 z"},"V":{"x_min":0,"x_max":698,"ha":698,"o":"m 711 729 l 711 670 l 657 670 l 409 0 l 305 0 l 57 670 l -5 670 l -5 729 l 303 729 l 303 670 l 239 670 l 416 187 l 595 670 l 517 670 l 517 729 z"},"\"":{"x_min":0,"x_max":469,"ha":469,"o":"m 190 729 l 190 458 l 86 458 l 86 729 z m 383 729 l 383 458 l 279 458 l 279 729 z"},"7":{"x_min":0,"x_max":626,"ha":626,"o":"m 552 605 l 281 0 l 191 0 l 455 591 l 131 591 l 131 492 l 71 492 l 71 729 l 552 729 z"},"S":{"x_min":0,"x_max":650,"ha":650,"o":"m 69 35 l 69 208 l 125 208 q 138 126 186 85 q 233 45 317 45 q 385 45 420 74 q 456 103 456 158 q 456 202 432 227 q 408 251 332 272 l 234 299 q 138 326 99 375 q 60 423 60 513 q 60 622 124 682 q 189 742 306 742 q 363 742 426 731 q 488 721 555 699 l 555 538 l 499 538 q 486 613 443 648 q 400 683 320 683 q 255 683 222 658 q 189 633 189 583 q 189 538 212 514 q 235 490 324 465 l 422 438 q 514 413 555 359 q 596 305 596 211 q 596 101 527 43 q 459 -14 326 -14 q 262 -14 198 -2 q 135 10 69 35 z"},"}":{"x_min":0,"x_max":579,"ha":579,"o":"m 82 -104 l 126 -104 q 175 -104 193 -81 q 211 -58 211 8 l 211 140 q 211 217 233 250 q 254 282 312 299 q 255 313 233 347 q 211 380 211 457 l 211 589 q 211 655 193 678 q 175 701 126 701 l 82 701 l 82 760 l 146 760 q 250 760 286 748 q 322 736 344 706 q 356 688 362 661 q 367 635 367 580 l 367 458 q 367 384 391 356 q 415 328 476 328 l 503 328 l 503 269 l 476 269 q 415 269 391 241 q 367 213 367 139 l 367 17 q 367 -38 362 -64 q 356 -91 344 -109 q 322 -139 286 -151 q 250 -163 146 -163 l 82 -163 z"},"Z":{"x_min":0,"x_max":657,"ha":657,"o":"m 33 0 l 33 69 l 425 662 l 111 662 l 111 553 l 51 553 l 51 729 l 620 729 l 620 660 l 233 67 l 564 67 l 564 169 l 625 169 l 625 0 z"},"x":{"x_min":0,"x_max":536,"ha":536,"o":"m 316 331 l 398 460 l 341 460 l 341 519 l 523 519 l 523 460 l 461 460 l 342 275 l 481 59 l 543 59 l 543 0 l 246 0 l 246 59 l 306 59 l 218 196 l 130 59 l 192 59 l 192 0 l 0 0 l 0 59 l 67 59 l 191 253 l 57 460 l 4 460 l 4 519 l 290 519 l 290 460 l 233 460 z"},")":{"x_min":0,"x_max":426,"ha":426,"o":"m 46 -156 l 46 -97 q 115 -50 146 42 q 176 134 176 302 q 176 470 146 562 q 115 654 46 701 l 46 760 q 195 695 268 583 q 340 471 340 302 q 340 133 267 19 q 194 -95 46 -156 z"},"&":{"x_min":0,"x_max":812,"ha":812,"o":"m 796 0 l 586 0 l 530 64 q 486 25 433 5 q 380 -14 317 -14 q 185 -14 111 48 q 36 111 36 220 q 36 300 74 356 q 112 413 193 453 q 171 486 160 516 q 148 545 148 573 q 148 653 209 698 q 270 742 379 742 q 411 742 455 736 q 498 730 552 719 l 552 567 l 496 567 q 488 627 462 655 q 437 683 390 683 q 345 683 320 660 q 294 636 294 596 q 294 551 373 462 q 382 453 386 448 l 588 213 q 615 246 630 290 q 645 333 648 388 l 569 388 l 569 447 l 789 447 l 789 388 l 711 388 q 704 317 684 262 q 664 207 631 164 l 722 59 l 796 59 z m 489 112 l 240 399 q 216 366 204 329 q 191 292 191 252 q 191 169 238 116 q 285 63 357 63 q 392 63 424 75 q 456 87 489 112 z"},"_":{"x_min":0,"x_max":450,"ha":450,"o":"m 450 -143 l 450 -236 l 0 -236 l 0 -143 z"},"v":{"x_min":0,"x_max":523,"ha":523,"o":"m 201 0 l 36 460 l -16 460 l -16 519 l 252 519 l 252 460 l 196 460 l 314 132 l 432 460 l 371 460 l 371 519 l 546 519 l 546 460 l 492 460 l 326 0 z"},"O":{"x_min":0,"x_max":784,"ha":784,"o":"m 392 45 q 476 45 516 124 q 557 202 557 364 q 557 526 516 604 q 476 683 392 683 q 308 683 267 604 q 226 524 226 364 q 226 204 267 124 q 308 45 392 45 z m 392 -14 q 226 -14 132 86 q 38 187 38 364 q 38 541 132 641 q 227 742 392 742 q 557 742 651 642 q 745 541 745 364 q 745 187 651 86 q 557 -14 392 -14 z"},"(":{"x_min":0,"x_max":426,"ha":426,"o":"m 379 -156 q 230 -95 158 19 q 85 133 85 302 q 85 471 157 583 q 229 695 379 760 l 379 701 q 310 654 279 562 q 248 470 248 302 q 248 134 279 42 q 310 -50 379 -97 z"},"C":{"x_min":0,"x_max":716,"ha":716,"o":"m 670 208 q 645 95 577 41 q 510 -14 397 -14 q 230 -14 134 88 q 38 189 38 364 q 38 539 134 640 q 230 742 397 742 q 455 742 519 727 q 582 711 652 679 l 652 500 l 597 500 q 580 592 534 637 q 489 683 415 683 q 319 683 272 605 q 226 526 226 364 q 226 201 272 123 q 319 45 416 45 q 481 45 523 85 q 564 126 583 208 z"},"W":{"x_min":0,"x_max":1011,"ha":1011,"o":"m 767 0 l 654 0 l 505 531 l 357 0 l 244 0 l 56 670 l -7 670 l -7 729 l 304 729 l 304 670 l 233 670 l 359 222 l 500 729 l 625 729 l 769 214 l 897 670 l 819 670 l 819 729 l 1022 729 l 1022 670 l 955 670 z"},"A":{"x_min":0,"x_max":698,"ha":698,"o":"m -6 0 l -6 59 l 47 59 l 294 729 l 399 729 l 646 59 l 709 59 l 709 0 l 402 0 l 402 59 l 466 59 l 412 208 l 166 208 l 110 59 l 188 59 l 188 0 z m 187 267 l 390 267 l 289 546 z"},"f":{"x_min":0,"x_max":387,"ha":387,"o":"m 436 630 l 386 630 q 383 668 366 687 q 350 705 319 705 q 284 705 269 677 q 253 649 253 586 l 253 519 l 370 519 l 370 460 l 253 460 l 253 59 l 343 59 l 343 0 l 31 0 l 31 59 l 97 59 l 97 460 l 28 460 l 28 519 l 97 519 l 97 584 q 97 670 147 715 q 196 760 292 760 q 330 760 366 755 q 401 750 436 741 z"},"Q":{"x_min":0,"x_max":784,"ha":784,"o":"m 389 -14 q 223 -11 130 88 q 38 188 38 364 q 38 541 132 641 q 227 742 392 742 q 557 742 651 642 q 745 541 745 364 q 745 208 673 112 q 601 15 467 -8 q 490 -36 524 -48 q 557 -60 610 -60 l 633 -60 l 633 -180 l 620 -180 q 537 -180 481 -140 q 425 -100 389 -14 z m 392 45 q 476 45 516 124 q 557 202 557 364 q 557 526 516 604 q 476 683 392 683 q 308 683 267 604 q 226 524 226 364 q 226 204 267 124 q 308 45 392 45 z"},"w":{"x_min":0,"x_max":774,"ha":774,"o":"m 486 519 l 592 173 l 680 460 l 619 460 l 619 519 l 793 519 l 793 460 l 738 460 l 597 0 l 490 0 l 391 325 l 292 0 l 185 0 l 43 460 l -7 460 l -7 519 l 257 519 l 257 460 l 202 460 l 289 179 l 393 519 z"},"-":{"x_min":0,"x_max":374,"ha":374,"o":"m 49 334 l 325 334 l 325 202 l 49 202 z"},"E":{"x_min":0,"x_max":686,"ha":686,"o":"m 42 0 l 42 59 l 126 59 l 126 670 l 42 670 l 42 729 l 632 729 l 632 557 l 571 557 l 571 662 l 295 662 l 295 428 l 467 428 l 467 521 l 527 521 l 527 269 l 467 269 l 467 362 l 295 362 l 295 67 l 580 67 l 580 172 l 640 172 l 640 0 z"},"s":{"x_min":0,"x_max":506,"ha":506,"o":"m 42 15 l 42 160 l 92 160 q 98 102 131 72 q 164 41 221 41 q 268 41 293 59 q 318 78 318 112 q 318 143 302 160 q 287 177 240 190 l 176 208 q 104 228 71 265 q 39 303 39 366 q 39 451 91 492 q 144 533 254 533 q 295 533 342 526 q 389 518 446 502 l 446 371 l 396 371 q 392 424 362 451 q 332 478 275 478 q 228 478 204 461 q 179 444 179 412 q 179 386 193 371 q 208 355 244 345 l 308 327 q 399 301 435 263 q 470 225 470 157 q 470 69 413 28 q 357 -14 238 -14 q 194 -14 146 -7 q 97 0 42 15 z"},">":{"x_min":0,"x_max":754,"ha":754,"o":"m 95 478 l 95 595 l 659 369 l 659 259 l 95 32 l 95 149 l 525 313 z"},"l":{"x_min":0,"x_max":342,"ha":342,"o":"m 253 59 l 319 59 l 319 0 l 31 0 l 31 59 l 97 59 l 97 701 l 31 701 l 31 760 l 253 760 z"},"8":{"x_min":0,"x_max":626,"ha":626,"o":"m 418 388 q 497 374 537 324 q 578 274 578 194 q 578 93 510 40 q 441 -14 312 -14 q 184 -14 115 40 q 46 93 46 194 q 46 274 87 324 q 128 374 206 388 q 137 406 103 447 q 68 488 68 552 q 68 645 131 693 q 193 742 312 742 q 431 742 494 693 q 556 645 556 552 q 556 488 522 447 q 487 406 418 388 z m 386 550 q 386 627 370 656 q 353 685 312 685 q 271 685 255 656 q 239 627 239 550 q 239 473 255 445 q 271 416 312 416 q 354 416 370 445 q 386 473 386 550 z m 403 202 q 403 292 383 325 q 362 359 312 359 q 262 359 242 325 q 222 292 222 202 q 222 112 242 77 q 262 43 312 43 q 362 43 383 77 q 403 112 403 202 z"},"\\":{"x_min":0,"x_max":329,"ha":329,"o":"m 97 729 l 329 -93 l 231 -93 l 0 729 z"},"e":{"x_min":0,"x_max":572,"ha":572,"o":"m 361 293 q 361 396 344 437 q 327 478 285 478 q 245 478 228 438 q 210 397 210 302 l 210 293 z m 532 235 l 210 235 l 210 231 q 210 130 238 86 q 265 41 326 41 q 376 41 407 71 q 438 101 447 157 l 521 157 q 501 69 445 27 q 389 -14 288 -14 q 167 -14 102 57 q 37 128 37 260 q 37 389 103 461 q 169 533 288 533 q 404 533 466 457 q 528 381 532 235 z"},"b":{"x_min":0,"x_max":629,"ha":629,"o":"m 87 59 l 87 701 l 21 701 l 21 760 l 243 760 l 243 453 q 263 494 296 513 q 330 533 379 533 q 479 533 536 460 q 593 387 593 260 q 593 132 536 59 q 479 -14 379 -14 q 330 -14 296 6 q 263 25 243 66 l 243 0 l 21 0 l 21 59 z m 243 234 q 243 143 264 103 q 285 62 332 62 q 379 62 399 105 q 418 148 418 260 q 418 372 399 414 q 379 457 332 457 q 285 457 264 417 q 243 376 243 285 z"},"%":{"x_min":0,"x_max":855,"ha":855,"o":"m 194 693 q 166 693 154 659 q 142 625 142 544 q 142 462 154 428 q 166 394 194 394 q 223 394 235 428 q 248 462 248 544 q 248 625 235 659 q 223 693 194 693 z m 194 742 q 278 742 323 691 q 367 640 367 544 q 367 448 323 396 q 278 345 194 345 q 111 345 66 396 q 21 448 21 544 q 21 640 66 691 q 111 742 194 742 z m 595 742 l 670 742 l 260 -14 l 185 -14 z m 661 383 q 745 383 789 332 q 833 281 833 185 q 833 89 789 37 q 745 -14 661 -14 q 577 -14 532 37 q 488 89 488 185 q 488 281 532 332 q 577 383 661 383 z m 661 334 q 632 334 620 300 q 607 266 607 185 q 607 104 620 69 q 632 35 661 35 q 689 35 701 69 q 714 104 714 185 q 714 266 701 300 q 689 334 661 334 z"},"m":{"x_min":0,"x_max":952,"ha":952,"o":"m 546 434 q 579 486 616 510 q 654 533 705 533 q 785 533 825 483 q 865 432 865 330 l 865 59 l 932 59 l 932 0 l 653 0 l 653 59 l 709 59 l 709 304 q 709 401 696 427 q 683 452 646 452 q 604 452 582 417 q 559 381 559 316 l 559 59 l 615 59 l 615 0 l 348 0 l 348 59 l 403 59 l 403 304 q 403 401 390 427 q 376 452 340 452 q 298 452 276 417 q 253 381 253 316 l 253 59 l 309 59 l 309 0 l 31 0 l 31 59 l 97 59 l 97 460 l 31 460 l 31 519 l 253 519 l 253 446 q 280 491 315 512 q 350 533 398 533 q 456 533 491 509 q 527 485 546 434 z"},"#":{"x_min":0,"x_max":754,"ha":754,"o":"m 450 426 l 334 426 l 303 292 l 419 292 z m 400 718 l 358 530 l 474 530 l 517 718 l 614 718 l 571 530 l 693 530 l 693 426 l 548 426 l 518 292 l 643 292 l 643 187 l 495 187 l 453 0 l 355 0 l 397 187 l 282 187 l 239 0 l 142 0 l 184 187 l 61 187 l 61 292 l 205 292 l 236 426 l 112 426 l 112 530 l 260 530 l 302 718 z"},",":{"x_min":0,"x_max":313,"ha":313,"o":"m 12 -96 q 58 -55 79 -4 q 101 46 101 114 l 101 156 l 226 156 l 226 152 q 226 44 185 -34 q 145 -112 60 -165 z"},"n":{"x_min":0,"x_max":654,"ha":654,"o":"m 31 0 l 31 59 l 97 59 l 97 460 l 31 460 l 31 519 l 253 519 l 253 446 q 281 492 317 513 q 353 533 408 533 q 486 533 527 482 q 567 430 567 330 l 567 59 l 634 59 l 634 0 l 354 0 l 354 59 l 411 59 l 411 335 q 411 401 396 427 q 381 452 344 452 q 297 452 275 414 q 253 375 253 292 l 253 59 l 310 59 l 310 0 z"},"h":{"x_min":0,"x_max":654,"ha":654,"o":"m 31 0 l 31 59 l 97 59 l 97 701 l 28 701 l 28 760 l 253 760 l 253 446 q 281 492 317 513 q 353 533 408 533 q 486 533 527 482 q 567 430 567 330 l 567 59 l 634 59 l 634 0 l 354 0 l 354 59 l 411 59 l 411 335 q 411 401 396 427 q 381 452 344 452 q 297 452 275 414 q 253 375 253 292 l 253 59 l 310 59 l 310 0 z"},"z":{"x_min":0,"x_max":511,"ha":511,"o":"m 32 0 l 32 59 l 300 462 l 98 462 l 98 373 l 46 373 l 46 519 l 481 519 l 481 461 l 212 58 l 429 58 l 429 152 l 481 152 l 481 0 z"},"B":{"x_min":0,"x_max":760,"ha":760,"o":"m 42 0 l 42 59 l 126 59 l 126 670 l 42 670 l 42 729 l 431 729 q 551 729 611 684 q 671 639 671 549 q 671 484 630 446 q 588 408 507 398 q 605 388 658 339 q 711 291 711 211 q 711 103 637 51 q 564 0 407 0 z m 295 425 l 353 425 q 429 425 465 455 q 501 486 501 549 q 501 612 466 641 q 431 670 353 670 l 295 670 z m 295 59 l 358 59 q 442 59 482 96 q 523 133 523 211 q 523 289 482 328 q 441 366 358 366 l 295 366 z"},"K":{"x_min":0,"x_max":782,"ha":782,"o":"m 42 0 l 42 59 l 126 59 l 126 670 l 42 670 l 42 729 l 380 729 l 380 670 l 295 670 l 295 404 l 573 670 l 503 670 l 503 729 l 748 729 l 748 670 l 661 670 l 425 445 l 745 59 l 810 59 l 810 0 l 587 0 l 295 354 l 295 59 l 380 59 l 380 0 z"},"R":{"x_min":0,"x_max":748,"ha":748,"o":"m 478 356 q 517 350 543 327 q 570 305 590 262 l 686 59 l 753 59 l 753 0 l 538 0 l 433 220 q 402 289 381 307 q 360 326 322 326 l 295 326 l 295 59 l 380 59 l 380 0 l 42 0 l 42 59 l 126 59 l 126 670 l 42 670 l 42 729 l 417 729 q 531 729 593 678 q 655 627 655 533 q 655 457 611 413 q 567 369 478 356 z m 295 385 l 353 385 q 415 385 448 422 q 481 459 481 528 q 481 597 448 633 q 415 670 353 670 l 295 670 z"},"T":{"x_min":0,"x_max":669,"ha":669,"o":"m 163 0 l 163 59 l 250 59 l 250 662 l 70 662 l 70 547 l 10 547 l 10 729 l 661 729 l 661 547 l 601 547 l 601 662 l 420 662 l 420 59 l 508 59 l 508 0 z"},"P":{"x_min":0,"x_max":677,"ha":677,"o":"m 42 0 l 42 59 l 126 59 l 126 670 l 42 670 l 42 729 l 416 729 q 525 729 590 671 q 654 613 654 516 q 654 418 590 360 q 525 302 416 302 l 295 302 l 295 59 l 401 59 l 401 0 z m 295 361 l 345 361 q 402 361 436 403 q 470 445 470 516 q 470 586 436 628 q 402 670 345 670 l 295 670 z"},"|":{"x_min":0,"x_max":327,"ha":327,"o":"m 210 764 l 210 -236 l 116 -236 l 116 764 z"},"t":{"x_min":0,"x_max":416,"ha":416,"o":"m 89 460 l 21 460 l 21 519 l 89 519 l 89 680 l 245 680 l 245 519 l 375 519 l 375 460 l 245 460 l 245 142 q 245 74 254 58 q 264 41 290 41 q 318 41 331 62 q 345 83 346 127 l 411 127 q 407 49 373 17 q 338 -14 254 -14 q 158 -14 124 19 q 89 53 89 142 z"},"M":{"x_min":0,"x_max":996,"ha":996,"o":"m 38 0 l 38 59 l 121 59 l 121 670 l 38 670 l 38 729 l 309 729 l 496 261 l 684 729 l 954 729 l 954 670 l 870 670 l 870 59 l 954 59 l 954 0 l 617 0 l 617 59 l 700 59 l 700 615 l 497 107 l 385 107 l 183 615 l 183 59 l 266 59 l 266 0 z"},"g":{"x_min":0,"x_max":629,"ha":629,"o":"m 542 460 l 542 7 q 542 -103 472 -162 q 402 -222 274 -222 q 227 -222 179 -214 q 131 -206 81 -190 l 81 -66 l 130 -66 q 137 -117 168 -142 q 198 -167 255 -167 q 327 -167 357 -129 q 386 -90 386 7 l 386 66 q 367 25 333 6 q 299 -14 250 -14 q 151 -14 94 59 q 37 132 37 260 q 37 388 94 460 q 151 533 250 533 q 299 533 333 513 q 367 494 386 453 l 386 519 l 608 519 l 608 460 z m 386 285 q 386 376 365 417 q 344 457 298 457 q 250 457 230 414 q 210 372 210 260 q 210 148 230 105 q 250 62 298 62 q 344 62 365 103 q 386 143 386 234 z"},"j":{"x_min":0,"x_max":325,"ha":325,"o":"m 79 666 q 79 706 103 733 q 127 760 164 760 q 198 760 222 732 q 247 705 247 666 q 247 627 223 600 q 198 573 164 573 q 128 573 103 600 q 79 627 79 666 z m 97 460 l 30 460 l 30 519 l 252 519 l 252 -61 q 252 -141 202 -181 q 151 -222 52 -222 q 25 -222 -4 -217 q -34 -212 -66 -203 l -66 -93 l -17 -93 q -16 -132 -3 -150 q 10 -167 39 -167 q 71 -167 84 -144 q 97 -121 97 -61 z"},"i":{"x_min":0,"x_max":342,"ha":342,"o":"m 83 666 q 83 706 107 733 q 132 760 167 760 q 202 760 227 733 q 251 706 251 666 q 251 627 227 600 q 202 573 167 573 q 132 573 107 600 q 83 627 83 666 z m 253 59 l 319 59 l 319 0 l 31 0 l 31 59 l 97 59 l 97 460 l 31 460 l 31 519 l 253 519 z"},"y":{"x_min":0,"x_max":523,"ha":523,"o":"m 281 -117 q 260 -174 230 -198 q 201 -222 150 -222 q 128 -222 102 -217 q 76 -211 44 -201 l 44 -93 l 94 -93 q 95 -131 110 -149 q 125 -167 154 -167 q 183 -167 201 -150 q 218 -132 236 -84 l 243 -66 l 39 460 l -11 460 l -11 519 l 258 519 l 258 460 l 202 460 l 321 153 l 432 460 l 370 460 l 370 519 l 545 519 l 545 460 l 488 460 z"},"@":{"x_min":0,"x_max":900,"ha":900,"o":"m 559 246 l 559 283 q 559 346 532 385 q 504 423 460 423 q 417 423 390 380 q 363 337 363 265 q 363 193 390 150 q 417 107 460 107 q 504 107 532 145 q 559 183 559 246 z m 559 117 q 540 82 508 63 q 477 45 438 45 q 354 45 305 104 q 257 162 257 265 q 257 368 305 427 q 354 485 438 485 q 477 485 508 466 q 540 448 559 413 l 559 474 l 655 474 l 655 112 q 718 131 752 188 q 787 245 787 331 q 787 401 762 458 q 738 515 688 562 q 648 600 594 621 q 539 641 478 641 q 420 641 371 624 q 321 607 280 573 q 218 521 184 441 q 150 361 150 265 q 150 189 172 122 q 193 55 232 6 q 279 -52 341 -82 q 402 -112 473 -112 q 527 -112 577 -95 q 627 -79 672 -46 l 697 -92 q 641 -133 580 -153 q 520 -174 456 -174 q 371 -174 300 -143 q 229 -112 173 -51 q 117 10 88 91 q 60 171 60 265 q 60 359 88 439 q 117 520 173 581 q 229 643 301 673 q 373 703 463 703 q 541 703 605 679 q 669 656 720 608 q 778 554 807 484 q 836 415 836 330 q 836 195 767 120 q 697 45 573 45 l 559 45 z"},".":{"x_min":0,"x_max":313,"ha":313,"o":"m 73 79 q 73 117 97 145 q 122 172 156 172 q 191 172 216 145 q 240 117 240 79 q 240 41 216 13 q 191 -14 156 -14 q 122 -14 97 13 q 73 41 73 79 z"},"p":{"x_min":0,"x_max":629,"ha":629,"o":"m 243 285 l 243 234 q 243 143 264 103 q 285 62 332 62 q 379 62 399 105 q 418 148 418 260 q 418 372 399 414 q 379 457 332 457 q 285 457 264 417 q 243 376 243 285 z m 87 460 l 21 460 l 21 519 l 243 519 l 243 453 q 263 494 296 513 q 330 533 379 533 q 479 533 536 460 q 593 387 593 260 q 593 132 536 59 q 479 -14 379 -14 q 330 -14 296 6 q 263 25 243 66 l 243 -149 l 315 -149 l 315 -208 l 21 -208 l 21 -149 l 87 -149 z"},"X":{"x_min":0,"x_max":698,"ha":698,"o":"m 305 281 l 168 59 l 249 59 l 249 0 l 16 0 l 16 59 l 97 59 l 270 338 l 64 670 l 4 670 l 4 729 l 331 729 l 331 670 l 258 670 l 385 465 l 511 670 l 435 670 l 435 729 l 663 729 l 663 670 l 582 670 l 420 408 l 635 59 l 697 59 l 697 0 l 370 0 l 370 59 l 443 59 z"},"*":{"x_min":0,"x_max":470,"ha":470,"o":"m 451 592 l 292 510 l 451 427 l 408 351 l 264 468 l 275 278 l 195 278 l 207 468 l 63 351 l 20 427 l 178 510 l 20 592 l 63 669 l 207 551 l 195 742 l 275 742 l 264 551 l 408 669 z"},"Y":{"x_min":0,"x_max":642,"ha":642,"o":"m 155 0 l 155 59 l 244 59 l 244 302 l 48 670 l -7 670 l -7 729 l 307 729 l 307 670 l 234 670 l 382 392 l 529 670 l 463 670 l 463 729 l 651 729 l 651 670 l 596 670 l 414 327 l 414 59 l 502 59 l 502 0 z"},"c":{"x_min":0,"x_max":548,"ha":548,"o":"m 508 162 q 491 73 439 30 q 388 -14 299 -14 q 174 -14 105 58 q 37 129 37 260 q 37 389 105 461 q 172 533 292 533 q 341 533 391 523 q 441 513 492 492 l 492 348 l 443 348 q 436 414 408 446 q 380 478 331 478 q 266 478 238 429 q 210 380 210 260 q 210 142 237 92 q 264 41 325 41 q 372 41 400 72 q 429 104 435 162 z"},"!":{"x_min":0,"x_max":395,"ha":395,"o":"m 114 79 q 114 117 139 145 q 163 172 197 172 q 231 172 256 145 q 281 117 281 79 q 281 41 256 13 q 231 -14 197 -14 q 163 -14 139 13 q 114 41 114 79 z m 115 729 l 280 729 l 228 318 l 228 225 l 167 225 l 167 318 z"},"/":{"x_min":0,"x_max":329,"ha":329,"o":"m 231 729 l 329 729 l 97 -93 l 0 -93 z"},"[":{"x_min":0,"x_max":426,"ha":426,"o":"m 112 760 l 362 760 l 362 701 l 268 701 l 268 -73 l 362 -73 l 362 -132 l 112 -132 z"},"6":{"x_min":0,"x_max":626,"ha":626,"o":"m 222 432 q 250 458 285 470 q 321 483 362 483 q 463 483 521 417 q 578 352 578 238 q 578 117 513 52 q 449 -14 330 -14 q 195 -14 126 76 q 57 166 57 341 q 57 540 134 641 q 210 742 362 742 q 401 742 447 735 q 492 728 543 713 l 543 584 l 490 584 q 479 634 449 659 q 418 685 370 685 q 292 685 257 625 q 222 566 222 432 z m 319 43 q 365 43 384 86 q 403 128 403 234 q 403 339 384 382 q 365 425 319 425 q 274 425 255 382 q 236 339 236 234 q 236 128 255 86 q 274 43 319 43 z"},"r":{"x_min":0,"x_max":474,"ha":474,"o":"m 483 525 l 483 370 l 434 370 q 431 412 414 432 q 396 452 362 452 q 312 452 282 402 q 253 353 253 264 l 253 59 l 337 59 l 337 0 l 31 0 l 31 59 l 97 59 l 97 460 l 26 460 l 26 519 l 253 519 l 253 427 q 275 481 313 507 q 351 533 405 533 q 419 533 438 531 q 458 529 483 525 z"},"2":{"x_min":0,"x_max":626,"ha":626,"o":"m 119 549 l 66 549 l 66 706 q 120 724 172 733 q 225 742 278 742 q 403 742 473 685 q 543 628 543 527 q 543 455 505 397 q 466 340 357 261 l 174 128 l 485 128 l 485 214 l 545 214 l 545 0 l 60 0 l 60 119 l 157 194 q 282 289 323 356 q 364 423 364 512 q 364 597 333 641 q 301 685 241 685 q 189 685 158 650 q 127 615 119 549 z"},"{":{"x_min":0,"x_max":579,"ha":579,"o":"m 498 -104 l 498 -163 l 433 -163 q 329 -163 293 -151 q 257 -139 235 -109 q 222 -91 217 -64 q 211 -38 211 17 l 211 139 q 211 213 188 241 q 165 269 103 269 l 76 269 l 76 328 l 103 328 q 165 328 188 356 q 211 384 211 458 l 211 580 q 211 635 217 661 q 222 688 235 706 q 257 736 293 748 q 329 760 433 760 l 498 760 l 498 701 l 453 701 q 403 701 385 678 q 367 655 367 589 l 367 457 q 367 379 345 346 q 324 313 267 299 q 325 282 346 250 q 367 218 367 140 l 367 8 q 367 -58 385 -81 q 403 -104 453 -104 z"},"9":{"x_min":0,"x_max":626,"ha":626,"o":"m 307 685 q 262 685 242 642 q 223 600 223 494 q 223 389 242 346 q 262 303 307 303 q 352 303 371 346 q 391 389 391 494 q 391 600 371 642 q 352 685 307 685 z m 405 297 q 376 271 341 258 q 305 245 264 245 q 164 245 106 310 q 49 375 49 490 q 49 611 113 677 q 177 742 296 742 q 431 742 500 652 q 569 562 569 387 q 569 188 492 87 q 416 -14 265 -14 q 225 -14 180 -7 q 134 0 83 15 l 83 144 l 136 144 q 147 94 177 69 q 208 43 257 43 q 334 43 369 103 q 404 163 405 297 z"}," ":{"x_min":0,"x_max":313,"ha":313,"o":""},"I":{"x_min":0,"x_max":421,"ha":421,"o":"m 42 0 l 42 59 l 126 59 l 126 670 l 42 670 l 42 729 l 380 729 l 380 670 l 295 670 l 295 59 l 380 59 l 380 0 z"},"H":{"x_min":0,"x_max":850,"ha":850,"o":"m 42 0 l 42 59 l 126 59 l 126 670 l 42 670 l 42 729 l 380 729 l 380 670 l 295 670 l 295 425 l 556 425 l 556 670 l 473 670 l 473 729 l 810 729 l 810 670 l 726 670 l 726 59 l 810 59 l 810 0 l 473 0 l 473 59 l 556 59 l 556 358 l 295 358 l 295 59 l 380 59 l 380 0 z"},"4":{"x_min":0,"x_max":626,"ha":626,"o":"m 574 0 l 213 0 l 213 59 l 311 59 l 311 192 l 37 192 l 37 248 l 312 742 l 477 742 l 477 255 l 589 255 l 589 192 l 477 192 l 477 59 l 574 59 z m 311 255 l 311 609 l 115 255 z"},"~":{"x_min":0,"x_max":754,"ha":754,"o":"m 659 406 l 659 305 q 618 263 577 243 q 536 223 491 223 q 450 223 383 251 q 375 254 372 256 q 369 257 363 260 q 288 292 245 292 q 211 292 174 274 q 138 257 95 221 l 95 322 q 138 364 178 384 q 219 404 263 404 q 305 404 371 376 q 379 373 382 371 l 389 368 q 465 335 509 335 q 543 335 580 353 q 617 370 659 406 z"},"D":{"x_min":0,"x_max":780,"ha":780,"o":"m 295 59 l 356 59 q 459 59 507 132 q 555 206 555 365 q 555 524 507 597 q 459 670 356 670 l 295 670 z m 42 0 l 42 59 l 126 59 l 126 670 l 42 670 l 42 729 l 379 729 q 556 729 649 635 q 743 542 743 365 q 743 188 649 94 q 555 0 379 0 z"},"^":{"x_min":0,"x_max":754,"ha":754,"o":"m 428 729 l 663 457 l 569 457 l 377 611 l 185 457 l 91 457 l 330 729 z"},"0":{"x_min":0,"x_max":626,"ha":626,"o":"m 313 43 q 366 43 386 96 q 405 149 405 364 q 405 577 386 631 q 366 685 313 685 q 261 685 241 632 q 222 579 222 364 q 222 149 241 96 q 261 43 313 43 z m 313 -14 q 182 -14 112 83 q 42 181 42 364 q 42 547 112 645 q 182 742 313 742 q 444 742 514 645 q 584 547 584 364 q 584 181 514 83 q 444 -14 313 -14 z"},"F":{"x_min":0,"x_max":639,"ha":639,"o":"m 42 0 l 42 59 l 126 59 l 126 670 l 42 670 l 42 729 l 627 729 l 627 557 l 567 557 l 567 662 l 296 662 l 296 428 l 463 428 l 463 521 l 523 521 l 523 269 l 463 269 l 463 362 l 296 362 l 296 59 l 399 59 l 399 0 z"},"`":{"x_min":0,"x_max":450,"ha":450,"o":"m 185 800 l 298 616 l 226 616 l 62 800 z"},"k":{"x_min":0,"x_max":624,"ha":624,"o":"m 312 0 l 31 0 l 31 59 l 97 59 l 97 701 l 31 701 l 31 760 l 253 760 l 253 272 l 441 460 l 385 460 l 385 519 l 599 519 l 599 460 l 512 460 l 392 340 l 588 59 l 639 59 l 639 0 l 371 0 l 371 59 l 426 59 l 296 244 l 253 201 l 253 59 l 312 59 z"},"u":{"x_min":0,"x_max":654,"ha":654,"o":"m 557 519 l 557 59 l 624 59 l 624 0 l 401 0 l 401 73 q 374 27 337 6 q 301 -14 247 -14 q 168 -14 128 37 q 87 89 87 189 l 87 460 l 21 460 l 21 519 l 243 519 l 243 216 q 243 119 258 93 q 272 67 311 67 q 358 67 380 105 q 401 144 401 228 l 401 460 l 345 460 l 345 519 z"},"]":{"x_min":0,"x_max":426,"ha":426,"o":"m 313 760 l 313 -132 l 63 -132 l 63 -73 l 157 -73 l 157 701 l 63 701 l 63 760 z"},"U":{"x_min":0,"x_max":785,"ha":785,"o":"m 114 670 l 31 670 l 31 729 l 368 729 l 368 670 l 284 670 l 284 305 q 284 169 323 115 q 361 60 454 60 q 544 60 582 115 q 620 170 620 305 l 620 670 l 537 670 l 537 729 l 765 729 l 765 670 l 681 670 l 681 295 q 681 128 616 57 q 551 -14 397 -14 q 245 -14 180 58 q 114 129 114 296 z"},"o":{"x_min":0,"x_max":600,"ha":600,"o":"m 301 41 q 350 41 370 88 q 390 135 390 260 q 390 385 370 431 q 350 478 301 478 q 251 478 231 431 q 210 384 210 260 q 210 136 231 88 q 251 41 301 41 z m 301 -14 q 177 -14 107 59 q 37 132 37 260 q 37 388 107 461 q 177 533 301 533 q 424 533 494 461 q 564 388 564 260 q 564 132 494 59 q 424 -14 301 -14 z"},"N":{"x_min":0,"x_max":822,"ha":822,"o":"m 40 0 l 40 59 l 124 59 l 124 670 l 40 670 l 40 729 l 245 729 l 641 213 l 641 670 l 557 670 l 557 729 l 787 729 l 787 670 l 703 670 l 703 0 l 587 0 l 186 527 l 186 59 l 269 59 l 269 0 z"},"+":{"x_min":0,"x_max":754,"ha":754,"o":"m 428 627 l 428 370 l 659 370 l 659 258 l 428 258 l 428 1 l 327 1 l 327 258 l 95 258 l 95 370 l 327 370 l 327 627 z"},"G":{"x_min":0,"x_max":769,"ha":769,"o":"m 619 500 q 600 597 553 640 q 507 683 423 683 q 321 683 274 606 q 226 529 226 364 q 226 200 272 122 q 317 45 414 45 q 451 45 482 54 q 514 63 540 82 l 540 282 l 461 282 l 461 341 l 697 341 l 697 61 q 624 23 550 4 q 477 -14 399 -14 q 230 -14 134 87 q 38 188 38 364 q 38 540 134 641 q 230 742 399 742 q 470 742 538 727 q 606 711 675 679 l 675 500 z"},"q":{"x_min":0,"x_max":629,"ha":629,"o":"m 542 460 l 542 -149 l 608 -149 l 608 -208 l 314 -208 l 314 -149 l 386 -149 l 386 66 q 367 25 333 6 q 299 -14 250 -14 q 151 -14 94 59 q 37 132 37 260 q 37 388 94 460 q 151 533 250 533 q 299 533 333 513 q 367 494 386 453 l 386 519 l 608 519 l 608 460 z m 386 285 q 386 376 365 417 q 344 457 298 457 q 250 457 230 414 q 210 372 210 260 q 210 148 230 105 q 250 62 298 62 q 344 62 365 103 q 386 143 386 234 z"},"d":{"x_min":0,"x_max":629,"ha":629,"o":"m 386 234 l 386 285 q 386 376 365 417 q 344 457 298 457 q 250 457 230 414 q 210 372 210 260 q 210 148 230 105 q 250 62 298 62 q 344 62 365 103 q 386 143 386 234 z m 542 59 l 608 59 l 608 0 l 386 0 l 386 66 q 367 25 333 6 q 299 -14 250 -14 q 151 -14 94 59 q 37 132 37 260 q 37 388 94 460 q 151 533 250 533 q 299 533 333 513 q 367 494 386 453 l 386 701 l 319 701 l 319 760 l 542 760 z"},"1":{"x_min":0,"x_max":626,"ha":626,"o":"m 124 0 l 124 59 l 247 59 l 247 649 l 110 559 l 110 632 l 274 742 l 413 742 l 413 59 l 537 59 l 537 0 z"},"5":{"x_min":0,"x_max":626,"ha":626,"o":"m 508 729 l 508 601 l 156 601 l 156 441 q 186 466 221 479 q 257 491 296 491 q 417 491 488 423 q 558 355 558 238 q 558 119 488 52 q 417 -14 291 -14 q 237 -14 184 -4 q 131 5 74 26 l 74 185 l 126 185 q 129 113 160 78 q 191 43 252 43 q 316 43 348 91 q 379 139 379 238 q 379 335 348 383 q 318 431 256 431 q 222 431 196 416 q 170 400 147 368 l 104 368 l 104 729 z"}}}
